<?xml version="1.0" standalone="no"?>
<!DOCTYPE svg PUBLIC "-//W3C//DTD SVG 20010904//EN"
 "http://www.w3.org/TR/2001/REC-SVG-20010904/DTD/svg10.dtd">
<svg version="1.0" xmlns="http://www.w3.org/2000/svg"
 width="2270.000000pt" height="1744.000000pt" viewBox="0 0 2270.000000 1744.000000"
 preserveAspectRatio="xMidYMid meet">

<g transform="translate(0.000000,1744.000000) scale(0.100000,-0.100000)"
fill="#000000" stroke="none">
<path d="M3804 13743 l-2905 -1726 6 -351 c3 -193 17 -1714 31 -3381 14 -1667
29 -3033 32 -3036 4 -4 1333 -758 2954 -1677 l2948 -1670 2904 1711 c1598 942
2902 1715 2898 1719 -4 4 -98 50 -209 102 l-202 94 -2726 -1595 -2725 -1595
-2742 1593 -2743 1594 -6 545 c-4 300 -9 1708 -13 3130 l-6 2585 2730 1619
2730 1618 2700 -1540 2699 -1540 195 102 c108 55 196 103 196 106 0 3 -1314
750 -2920 1661 l-2920 1657 -2906 -1725z"/>
<path d="M4118 13236 c-1428 -853 -2599 -1554 -2602 -1556 -8 -9 43 -6053 51
-6060 27 -25 5242 -3064 5258 -3064 15 -1 4851 2877 5129 3052 l40 25 -65 33
c-35 18 -72 33 -81 34 -10 0 -1142 -671 -2515 -1492 -1374 -820 -2502 -1491
-2508 -1491 -8 0 -5111 2976 -5124 2989 -4 3 -51 5887 -48 5891 1 0 1145 684
2541 1518 2147 1282 2543 1515 2560 1507 12 -5 1157 -652 2546 -1437 l2525
-1427 78 39 78 38 -2610 1474 c-1435 811 -2620 1476 -2632 1477 -17 2 -845
-488 -2621 -1550z"/>
<path d="M6408 11780 c-42 -13 -96 -48 -117 -78 -10 -15 -36 -79 -56 -142 -60
-189 -48 -174 -168 -216 -40 -15 -76 -30 -81 -35 -6 -5 -18 -9 -27 -9 -24 0
-116 43 -179 85 -55 36 -134 65 -177 65 -49 0 -126 -40 -186 -96 -253 -237
-294 -280 -310 -327 -25 -74 -9 -138 70 -279 53 -96 64 -123 58 -145 -9 -38
-82 -188 -98 -201 -12 -11 -206 -71 -242 -76 -49 -7 -115 -59 -146 -116 -11
-19 -15 -95 -19 -308 l-5 -282 438 0 437 0 0 21 c0 17 5 20 25 17 28 -6 27
-17 4 137 -30 200 31 468 147 642 110 167 295 328 448 392 187 78 337 105 507
91 253 -21 427 -93 629 -261 96 -80 166 -172 230 -304 106 -218 130 -381 91
-622 l-18 -113 101 -1 c56 -1 264 -4 464 -8 l362 -6 1 220 c2 322 2 324 -16
372 -17 44 -81 103 -112 103 -8 0 -29 6 -46 14 -18 8 -66 24 -107 36 -126 36
-123 33 -163 123 -64 144 -63 130 -16 216 113 205 112 201 111 256 0 28 -7 67
-15 86 -17 41 -332 356 -384 383 -20 11 -60 22 -89 24 -50 4 -63 0 -199 -67
-79 -39 -154 -71 -166 -71 -11 0 -53 13 -92 29 -40 16 -83 32 -96 36 -27 8
-50 55 -81 171 -35 128 -67 184 -124 219 l-49 30 -256 2 c-141 1 -268 -2 -283
-7z m510 -165 c8 -7 33 -77 57 -156 40 -132 47 -147 84 -180 45 -40 239 -128
301 -136 53 -7 147 24 278 94 96 51 104 54 125 40 12 -8 88 -81 170 -161 118
-117 147 -152 147 -174 0 -16 -26 -69 -65 -131 -35 -57 -69 -119 -76 -138 -15
-46 -5 -113 27 -182 14 -31 27 -65 30 -76 8 -42 57 -126 84 -145 34 -24 112
-52 224 -81 92 -23 122 -41 130 -75 4 -14 4 -100 0 -190 l-7 -165 -256 2
c-141 0 -269 3 -286 6 l-30 5 0 156 c-1 180 -17 260 -83 424 -50 125 -89 188
-186 305 -132 158 -260 249 -472 333 -156 63 -253 81 -446 82 -172 2 -234 -7
-386 -58 -143 -48 -197 -73 -298 -140 -212 -140 -384 -363 -462 -601 -40 -121
-65 -290 -61 -406 l4 -91 -278 -1 c-154 0 -282 2 -286 5 -13 8 -20 168 -13
269 9 117 8 116 196 170 89 26 147 48 164 63 13 13 54 82 89 153 62 126 64
132 60 195 -3 59 -10 77 -70 184 -37 65 -67 130 -67 145 0 20 29 53 137 156
172 164 200 186 221 177 10 -4 74 -37 144 -74 115 -62 131 -68 184 -68 41 0
78 9 119 26 33 14 94 39 135 55 104 39 121 62 176 236 32 102 51 147 67 158
19 14 50 15 242 10 155 -5 224 -11 233 -20z"/>
<path d="M6570 10489 c-14 -6 -37 -22 -52 -36 -23 -22 -28 -35 -28 -75 0 -40
6 -56 31 -87 24 -31 30 -46 27 -77 -2 -32 -8 -41 -33 -53 -16 -7 -39 -21 -50
-31 -11 -9 -50 -34 -86 -54 l-66 -36 -54 28 c-37 21 -56 38 -62 58 -14 43 -34
61 -81 73 -91 23 -156 -26 -156 -118 0 -49 30 -106 60 -116 11 -3 46 -5 78 -3
45 2 64 -2 87 -18 17 -11 38 -24 48 -27 15 -6 17 -22 17 -146 l0 -139 -55 -31
c-44 -25 -66 -31 -113 -31 -60 0 -78 -8 -106 -50 -38 -58 -7 -173 51 -186 15
-3 33 -7 39 -9 7 -2 31 1 54 7 43 11 80 53 80 90 0 10 22 28 58 46 l58 30 67
-37 c36 -21 74 -44 84 -53 10 -9 33 -23 51 -32 l32 -17 0 -112 0 -113 -77 -67
c-51 -45 -85 -67 -102 -67 -70 -1 -111 -44 -111 -119 0 -82 39 -121 120 -121
78 0 120 39 120 112 0 27 10 41 54 80 l54 47 48 -52 c40 -42 49 -60 51 -92 2
-49 30 -86 77 -104 45 -17 99 -4 139 33 23 21 27 33 27 81 0 50 -3 59 -35 90
-25 26 -43 35 -67 35 -28 0 -45 11 -101 68 l-67 68 0 116 0 117 33 17 c17 9
45 27 60 40 16 13 33 24 38 24 5 0 31 13 57 30 l49 30 59 -32 c32 -17 80 -45
107 -61 l47 -30 0 -90 c0 -84 -2 -91 -30 -127 -44 -55 -42 -115 4 -164 31 -33
38 -36 91 -36 53 0 60 3 91 36 29 30 34 43 34 82 -1 37 -7 54 -30 82 -29 33
-30 37 -30 141 0 90 3 108 18 122 10 10 22 17 25 17 4 0 30 17 58 37 28 20 65
38 81 40 54 6 82 26 96 68 32 98 -16 175 -109 175 -68 0 -110 -37 -118 -105
-4 -34 -12 -51 -26 -59 -11 -6 -37 -26 -59 -43 -45 -38 -53 -39 -77 -17 -21
19 -93 60 -131 75 l-28 11 0 149 c0 82 4 149 8 149 5 0 34 16 66 35 32 19 63
32 68 29 18 -11 99 19 118 44 14 18 20 40 20 80 0 50 -3 58 -36 88 -30 29 -43
34 -84 34 -41 0 -54 -5 -84 -34 -26 -24 -36 -42 -36 -64 0 -26 -7 -34 -55 -61
l-56 -32 -67 37 c-37 21 -75 44 -84 52 -9 7 -32 21 -50 30 -46 24 -50 74 -11
133 50 75 30 164 -42 195 -39 16 -60 17 -95 3z m152 -504 c4 -5 33 -23 65 -40
l58 -30 3 -146 3 -145 -47 -22 c-26 -13 -77 -43 -115 -68 -37 -24 -71 -44 -74
-44 -3 0 -37 20 -74 44 -38 25 -89 55 -115 68 l-47 22 3 145 3 145 30 16 c16
8 59 33 95 56 108 68 99 66 155 36 27 -15 53 -31 57 -37z"/>
<path d="M12610 10215 c-108 -29 -127 -45 -535 -448 -372 -369 -397 -395 -415
-448 -37 -108 -40 -198 -40 -1178 l0 -954 137 6 c75 4 191 7 258 7 l122 0 6
430 c7 472 7 475 68 500 19 8 241 12 737 13 706 2 711 2 739 -19 15 -11 38
-36 51 -54 22 -33 22 -34 22 -456 l0 -424 265 0 265 0 0 973 c0 536 3 1210 7
1499 l6 526 -39 12 c-57 16 -183 19 -934 24 -515 3 -686 1 -720 -9z m1101
-574 l39 -39 0 -412 c0 -400 -1 -413 -21 -441 l-20 -29 -785 0 -784 0 0 113 0
113 157 194 c245 305 389 475 418 494 66 43 82 45 529 45 l428 1 39 -39z"/>
<path d="M15712 10200 l-824 -5 -33 -37 c-19 -20 -39 -55 -45 -78 -11 -40 -7
-522 16 -2367 l7 -523 258 0 259 0 0 464 0 464 31 11 c22 8 294 11 893 11
l861 0 46 28 c25 15 89 67 142 116 88 82 98 96 126 167 l31 78 0 699 0 698
-37 62 c-58 94 -123 171 -169 198 l-41 24 -349 -2 c-192 -2 -719 -5 -1172 -8z
m1191 -541 l37 -30 0 -434 0 -433 -31 -26 -31 -26 -738 0 -738 0 -26 31 -26
31 0 420 c0 414 0 421 22 459 l22 39 736 0 735 0 38 -31z"/>
<path d="M17958 10199 c-17 -9 -18 -92 -18 -1510 l0 -1500 261 3 c260 3 261 3
280 27 19 23 19 61 19 1485 0 1246 -2 1465 -14 1482 -13 18 -30 19 -263 21
-159 2 -254 -1 -265 -8z"/>
<path d="M19274 10200 c-129 -19 -223 -73 -254 -143 -16 -39 -18 -118 -24
-1238 -7 -1244 -6 -1260 34 -1339 20 -39 92 -111 219 -219 l83 -71 553 0 552
0 182 140 c100 77 186 140 191 140 5 0 74 -63 153 -140 l145 -140 315 0 c266
0 316 2 327 15 7 8 10 22 6 30 -6 17 -374 443 -445 515 l-44 45 119 113 c66
62 144 130 174 151 32 22 67 58 85 86 l30 48 0 856 c0 803 -1 860 -18 916 -37
119 -84 181 -167 219 -45 21 -53 21 -1105 22 -583 1 -1083 -2 -1111 -6z m1788
-527 c9 -10 28 -43 43 -73 l28 -55 -7 -495 c-5 -272 -11 -553 -15 -624 -8
-150 -4 -144 -145 -217 -63 -33 -80 -39 -87 -28 -5 8 -39 62 -75 121 -55 88
-69 106 -83 99 -9 -5 -125 -37 -256 -71 -132 -34 -246 -66 -254 -70 -11 -6 26
-49 142 -167 119 -121 154 -163 145 -170 -7 -6 -68 -45 -136 -87 l-122 -76
-338 2 -337 3 -20 40 c-19 39 -20 63 -23 890 l-3 850 23 45 c18 34 35 51 77
72 l53 28 688 0 c642 0 688 -1 702 -17z"/>
<path d="M7701 9493 c-50 -25 -100 -81 -112 -127 -26 -95 15 -185 107 -233
l54 -28 0 -477 0 -477 -386 -648 c-213 -356 -436 -730 -496 -831 -60 -101
-116 -199 -124 -217 -8 -20 -14 -67 -14 -110 0 -62 5 -87 27 -133 36 -77 121
-160 208 -203 l70 -34 1100 0 1100 0 70 34 c87 43 172 126 208 203 22 46 27
71 27 133 0 43 -6 90 -14 110 -8 18 -128 224 -267 457 -341 573 -610 1023
-680 1141 l-59 98 0 477 0 477 54 28 c34 18 65 44 83 69 24 35 28 51 28 108 0
78 -24 122 -90 168 l-40 27 -410 2 c-368 3 -414 1 -444 -14z m813 -159 c18
-18 19 -24 7 -43 -7 -10 -35 -17 -88 -20 l-78 -6 -3 -572 -2 -573 228 -382
c126 -211 241 -404 256 -429 l26 -46 -57 9 c-32 6 -102 7 -155 4 -122 -7 -227
-40 -404 -130 -151 -75 -192 -90 -299 -106 -68 -11 -93 -10 -169 4 -50 10
-115 28 -145 41 -79 33 -167 57 -232 64 l-55 6 86 145 c48 80 178 297 288 483
l202 337 0 95 0 95 45 0 c35 0 52 6 70 25 56 55 15 135 -70 135 l-45 0 0 50 0
50 45 0 c35 0 52 6 70 25 57 56 11 135 -79 135 l-36 0 0 50 0 50 39 0 c52 0
101 39 101 81 0 46 -39 79 -93 79 l-44 0 -7 46 c-3 26 -6 84 -6 129 0 54 -4
86 -12 93 -7 5 -41 12 -76 14 -77 5 -101 28 -66 62 13 14 62 16 379 16 317 0
366 -2 379 -16z m364 -2249 c44 -15 94 -39 110 -54 38 -33 370 -592 385 -647
16 -63 -4 -118 -63 -176 -86 -83 -17 -78 -1175 -78 -1158 0 -1089 -5 -1175 78
-59 58 -79 113 -63 175 7 23 87 170 180 326 l168 283 95 -5 c95 -6 125 -13
252 -61 108 -41 220 -60 318 -53 133 9 229 39 405 127 255 126 380 145 563 85z"/>
<path d="M8620 6931 c-60 -32 -93 -83 -98 -151 -5 -73 8 -109 59 -154 89 -81
205 -67 279 35 84 116 -9 289 -156 289 -29 0 -64 -8 -84 -19z m105 -166 c0
-13 -8 -21 -22 -23 -17 -3 -23 2 -23 16 0 10 3 22 7 26 13 13 38 1 38 -19z"/>
<path d="M7305 6815 c-63 -38 -90 -86 -90 -160 0 -49 5 -69 25 -97 59 -88 168
-114 256 -63 58 34 99 116 91 180 -19 134 -169 209 -282 140z m119 -151 c8
-21 -1 -34 -24 -34 -20 0 -30 17 -22 38 6 17 39 15 46 -4z"/>
<path d="M8090 6803 c-54 -20 -69 -92 -27 -131 51 -48 137 -13 137 55 0 51
-62 94 -110 76z"/>
<path d="M7885 6494 c-73 -38 -105 -89 -105 -169 0 -66 16 -100 65 -143 43
-38 69 -46 141 -40 62 5 114 40 146 98 29 52 21 146 -15 194 -53 69 -161 97
-232 60z m103 -167 c4 -20 -25 -34 -40 -19 -15 15 -1 44 19 40 10 -2 19 -11
21 -21z"/>
<path d="M8521 6384 c-23 -19 -31 -34 -31 -59 0 -25 8 -40 31 -59 38 -33 69
-33 103 -1 43 40 33 105 -21 133 -32 18 -48 15 -82 -14z"/>
<path d="M4830 9423 c-33 -6 -79 -50 -96 -90 -18 -42 -18 -193 0 -236 17 -42
70 -87 102 -87 l24 0 0 -430 0 -430 -27 -11 c-78 -31 -157 -69 -238 -114 -73
-41 -114 -74 -221 -180 -212 -210 -292 -358 -353 -653 -16 -77 -13 -322 4
-417 33 -179 62 -260 150 -420 93 -169 285 -371 411 -431 113 -54 163 -57 684
-51 511 7 554 11 659 67 157 84 374 351 451 555 5 11 15 36 23 55 100 233 104
636 7 870 -54 132 -92 198 -168 293 -153 193 -361 349 -556 418 l-51 17 -3
430 -2 430 33 6 c38 7 80 47 96 89 16 41 14 191 -3 230 -7 18 -28 46 -45 62
l-32 30 -412 1 c-227 1 -423 0 -437 -3z m770 -202 l0 -48 -51 -5 c-27 -3 -56
-11 -62 -17 -9 -9 -12 -149 -12 -556 0 -631 -13 -566 120 -610 210 -69 416
-221 532 -391 l42 -61 -92 24 c-111 29 -325 36 -447 15 -105 -19 -240 -64
-339 -112 -117 -57 -203 -88 -331 -118 -257 -61 -481 -44 -686 50 -21 10 -21
11 13 77 84 161 240 328 383 410 104 60 246 121 281 121 9 0 26 12 40 26 l24
26 1 531 c1 292 -2 542 -7 554 -7 20 -15 23 -64 23 l-55 0 0 55 0 55 355 0
355 0 0 -49z m407 -1817 c33 -8 92 -25 131 -37 138 -47 135 -44 164 -152 18
-68 18 -382 0 -450 -69 -254 -164 -426 -319 -577 -96 -93 -156 -126 -257 -140
-47 -6 -268 -11 -526 -12 -506 -1 -516 0 -612 76 -192 151 -333 380 -399 648
-19 74 -19 390 -1 443 15 41 22 44 60 23 101 -53 250 -81 427 -80 155 1 235
12 400 56 103 28 250 86 347 138 20 11 115 43 178 59 120 32 280 34 407 5z"/>
<path d="M5650 7340 c19 -13 30 -13 30 0 0 6 -10 10 -22 10 -19 0 -20 -2 -8
-10z"/>
<path d="M5436 7183 c-80 -12 -166 -119 -166 -205 0 -39 28 -107 59 -142 29
-33 93 -59 146 -58 124 1 205 86 205 215 0 58 -3 69 -35 109 -54 71 -115 95
-209 81z m67 -167 c34 -26 15 -76 -29 -76 -34 0 -46 47 -18 74 19 19 24 19 47
2z"/>
<path d="M4338 7041 c-93 -59 -123 -165 -74 -261 59 -117 216 -157 306 -77 58
51 74 87 74 163 0 62 -3 76 -27 107 -52 68 -92 91 -166 95 -59 3 -71 0 -113
-27z m134 -148 c23 -21 23 -36 -1 -57 -15 -14 -24 -15 -40 -6 -12 6 -21 12
-21 15 0 2 -3 10 -6 18 -6 15 20 47 38 47 6 0 20 -7 30 -17z"/>
<path d="M5741 6663 c-24 -3 -48 -19 -87 -57 -43 -44 -54 -61 -59 -100 -11
-70 1 -127 36 -169 85 -103 233 -103 317 -2 71 87 67 192 -11 273 -53 55 -95
67 -196 55z m70 -163 c25 -14 25 -56 -1 -70 -25 -13 -60 3 -60 27 0 15 27 53
37 53 2 0 13 -5 24 -10z"/>
<path d="M4903 6639 c-192 -94 -121 -389 93 -389 72 0 112 18 157 70 42 50 56
119 37 189 -13 49 -66 112 -114 135 -46 22 -122 19 -173 -5z m119 -156 c24
-21 23 -50 -2 -63 -47 -25 -86 24 -49 61 23 23 28 23 51 2z"/>
</g>
</svg>
