<?xml version="1.0" encoding="UTF-8"?>
<!DOCTYPE svg PUBLIC "-//W3C//DTD SVG 1.1//EN" "http://www.w3.org/Graphics/SVG/1.1/DTD/svg11.dtd">
<svg xmlns="http://www.w3.org/2000/svg" version="1.1" width="2206px" height="1367px" style="shape-rendering:geometricPrecision; text-rendering:geometricPrecision; image-rendering:optimizeQuality; fill-rule:evenodd; clip-rule:evenodd" xmlns:xlink="http://www.w3.org/1999/xlink">
<g><path style="opacity:0.969" fill="#fefefe" d="M 603.5,3.5 C 604.873,3.34332 606.207,3.50999 607.5,4C 801.5,114 995.5,224 1189.5,334C 1190.45,334.718 1190.62,335.551 1190,336.5C 1177.42,342.872 1164.92,349.372 1152.5,356C 1151.17,356.667 1149.83,356.667 1148.5,356C 969.329,253.58 789.996,151.414 610.5,49.5C 428.668,156.915 247.002,264.581 65.5,372.5C 65.1667,374 64.8333,375.5 64.5,377C 65.4733,583.825 66.4733,790.658 67.5,997.5C 250.167,1103.5 432.833,1209.5 615.5,1315.5C 796.5,1209.67 977.5,1103.83 1158.5,998C 1160.17,997.333 1161.83,997.333 1163.5,998C 1176.99,1004.24 1190.32,1010.74 1203.5,1017.5C 1010.02,1132.63 816.019,1246.97 621.5,1360.5C 424.708,1249.6 228.042,1138.44 31.5,1027C 30.7734,1025.6 30.2734,1024.1 30,1022.5C 27.6726,797.502 26.006,572.502 25,347.5C 217.979,232.933 410.813,118.266 603.5,3.5 Z"/></g>
<g><path style="opacity:0.922" fill="#fefefe" d="M 605.5,70.5 C 607.854,70.838 610.187,71.338 612.5,72C 786.662,170.247 960.662,268.747 1134.5,367.5C 1129.51,369.996 1124.51,372.496 1119.5,375C 1118.17,375.667 1116.83,375.667 1115.5,375C 946.58,279.083 777.413,183.583 608,88.5C 438.685,188.99 269.685,289.99 101,391.5C 101.729,587.504 103.229,783.504 105.5,979.5C 276.082,1079.04 446.582,1178.71 617,1278.5C 784.333,1178.5 951.667,1078.5 1119,978.5C 1124.45,981.476 1129.95,984.309 1135.5,987C 962.899,1090.55 790.065,1193.72 617,1296.5C 441.434,1194.3 265.934,1091.97 90.5,989.5C 88.1058,787.119 86.2724,584.786 85,382.5C 258.646,278.6 432.146,174.6 605.5,70.5 Z"/></g>
<g><path style="opacity:0.986" fill="#fefefe" d="M 577.5,371.5 C 590.92,372 604.086,372 617,371.5C 625.996,370.557 633.662,373.224 640,379.5C 644.168,390.672 648.335,401.839 652.5,413C 659.322,415.996 666.322,418.496 673.5,420.5C 683.804,416.676 693.804,412.176 703.5,407C 709.886,405.791 715.886,406.791 721.5,410C 732.029,420.863 742.863,431.363 754,441.5C 758.529,447.086 760.195,453.419 759,460.5C 753.848,470.135 748.681,479.802 743.5,489.5C 746.302,497.102 749.635,504.435 753.5,511.5C 763.255,514.519 772.921,517.686 782.5,521C 789.109,524.03 792.942,529.197 794,536.5C 794.029,554.497 793.695,572.497 793,590.5C 762.231,589.699 731.397,588.865 700.5,588C 703.077,574.316 704.244,560.482 704,546.5C 695.497,501.668 669.33,473.168 625.5,461C 573.631,451.831 534.131,469.664 507,514.5C 496.853,537.344 494.186,561.011 499,585.5C 497.644,584.62 496.144,584.286 494.5,584.5C 494.5,585.833 494.5,587.167 494.5,588.5C 465.197,588.71 435.863,588.71 406.5,588.5C 407.06,570.171 407.56,551.838 408,533.5C 409.607,527.895 412.774,523.395 417.5,520C 427.777,517.355 438.11,514.022 448.5,510C 451.461,504.578 454.294,499.078 457,493.5C 457.837,491.179 458.17,488.845 458,486.5C 453.613,478.221 449.113,470.055 444.5,462C 444.833,461.667 445.167,461.333 445.5,461C 442.827,453.634 443.994,446.801 449,440.5C 461.347,427.474 474.847,415.974 489.5,406C 493.5,405.333 497.5,405.333 501.5,406C 507.66,408.577 513.327,411.91 518.5,416C 522.29,417.646 526.123,419.146 530,420.5C 537.241,417.805 544.407,414.805 551.5,411.5C 555.085,401.916 558.585,392.249 562,382.5C 565.962,377.023 571.129,373.356 577.5,371.5 Z M 580.5,386.5 C 595.506,386.75 610.506,387.25 625.5,388C 629.909,398.22 633.742,408.72 637,419.5C 639.205,422.04 641.705,424.207 644.5,426C 653.539,430.4 662.872,433.9 672.5,436.5C 675.226,436.318 677.893,435.818 680.5,435C 690.033,431.062 699.366,426.896 708.5,422.5C 709.5,422.667 710.5,422.833 711.5,423C 715.866,427.701 720.533,432.034 725.5,436C 731.961,442.117 737.628,448.783 742.5,456C 742.385,458.732 741.552,461.232 740,463.5C 735.497,469.835 731.497,476.502 728,483.5C 727.113,492.452 729.28,500.619 734.5,508C 734.805,514.792 737.805,520.459 743.5,525C 753.294,528.616 763.294,531.616 773.5,534C 777.88,537.12 779.547,541.454 778.5,547C 777.751,556.153 777.417,565.319 777.5,574.5C 758.165,574.327 738.832,573.993 719.5,573.5C 723.929,525.847 706.262,488.347 666.5,461C 617.954,434.02 570.954,436.353 525.5,468C 492.247,495.071 477.247,530.071 480.5,573C 461.797,572.547 443.13,572.381 424.5,572.5C 422.009,560.104 422.175,547.771 425,535.5C 425.903,534.299 427.069,533.465 428.5,533C 438.329,530.46 447.996,527.46 457.5,524C 459,522.5 460.5,521 462,519.5C 466,511.5 470,503.5 474,495.5C 474.667,491.167 474.667,486.833 474,482.5C 470.088,474.343 465.922,466.343 461.5,458.5C 460.353,456.235 460.186,453.902 461,451.5C 472.034,440.798 483.367,430.464 495,420.5C 504.881,425.524 514.714,430.691 524.5,436C 528.572,436.658 532.572,436.325 536.5,435C 543.842,431.162 551.508,428.162 559.5,426C 562.295,424.207 564.795,422.04 567,419.5C 570.202,410.228 573.202,400.895 576,391.5C 577.025,389.313 578.525,387.646 580.5,386.5 Z"/></g>
<g><path style="opacity:0.934" fill="#fefefe" d="M 591.5,500.5 C 604.321,499.154 609.821,504.82 608,517.5C 606.92,519.996 605.586,522.33 604,524.5C 603.333,527.167 603.333,529.833 604,532.5C 610.384,537.281 617.217,541.448 624.5,545C 628.34,544.6 632.007,543.266 635.5,541C 636.142,534.374 639.475,529.708 645.5,527C 658.16,525.995 663.66,531.828 662,544.5C 658.602,551.118 653.102,553.951 645.5,553C 642.327,555.087 638.994,556.921 635.5,558.5C 634.501,568.478 634.168,578.478 634.5,588.5C 640.968,590.653 646.801,593.986 652,598.5C 655.717,595.115 659.717,592.115 664,589.5C 664.258,577.903 670.092,572.737 681.5,574C 684.102,574.883 686.269,576.383 688,578.5C 692.855,591.812 688.355,599.145 674.5,600.5C 670.473,603.694 666.306,606.694 662,609.5C 661.333,616.833 661.333,624.167 662,631.5C 668.431,637.613 669.098,644.279 664,651.5C 658.209,656.18 652.042,656.68 645.5,653C 638.725,645.688 638.892,638.521 646,631.5C 646.81,624.918 646.643,618.418 645.5,612C 639.213,608.278 633.047,604.444 627,600.5C 619.202,604.984 611.535,609.651 604,614.5C 603.333,622.5 603.333,630.5 604,638.5C 607.833,642.333 611.667,646.167 615.5,650C 628.665,651.83 632.998,658.996 628.5,671.5C 622.512,677.134 615.845,677.967 608.5,674C 605.356,670.095 603.69,665.595 603.5,660.5C 600.85,657.349 598.016,654.349 595,651.5C 592.297,654.538 589.297,657.205 586,659.5C 584.841,674.335 577.341,678.835 563.5,673C 557.67,664.991 558.336,657.657 565.5,651C 569.21,650.105 572.877,649.105 576.5,648C 580.034,644.131 583.867,640.631 588,637.5C 588.667,629.833 588.667,622.167 588,614.5C 581.145,609.404 573.812,605.071 566,601.5C 563.046,603.393 559.879,604.893 556.5,606C 552.757,618.033 545.09,621.366 533.5,616C 527.969,608.597 528.302,601.43 534.5,594.5C 538.688,592.331 543.022,591.998 547.5,593.5C 550.919,591.374 554.419,589.374 558,587.5C 558.832,578.149 558.665,568.816 557.5,559.5C 554.624,557.563 551.624,555.896 548.5,554.5C 537.124,557.82 530.79,553.653 529.5,542C 530.677,531.896 536.344,527.896 546.5,530C 549.034,530.516 551.2,531.683 553,533.5C 553.977,536.102 555.144,538.602 556.5,541C 559.606,542.636 562.773,544.136 566,545.5C 573.812,541.929 581.145,537.596 588,532.5C 589.473,526.448 587.807,521.448 583,517.5C 581.222,509.463 584.056,503.797 591.5,500.5 Z M 594.5,546.5 C 596.308,546.491 597.975,546.991 599.5,548C 605.448,552.222 611.614,556.055 618,559.5C 618.832,569.184 618.665,578.851 617.5,588.5C 609.918,592.205 602.751,596.538 596,601.5C 589.249,596.538 582.082,592.205 574.5,588.5C 573.335,578.851 573.168,569.184 574,559.5C 581.254,555.73 588.087,551.396 594.5,546.5 Z"/></g>
<g><path style="opacity:0.987" fill="#fefefe" d="M 1195.5,527.5 C 1241.17,527.333 1286.83,527.5 1332.5,528C 1343.26,528.023 1353.93,528.856 1364.5,530.5C 1364.79,630.839 1364.46,731.173 1363.5,831.5C 1345.83,831.5 1328.17,831.5 1310.5,831.5C 1309.71,803.186 1309.21,774.852 1309,746.5C 1305.82,738.743 1299.99,735.077 1291.5,735.5C 1246.15,736.016 1200.82,736.849 1155.5,738C 1152.25,740.342 1150.41,743.509 1150,747.5C 1149.97,775.228 1149.31,802.895 1148,830.5C 1130.91,831.492 1113.74,831.825 1096.5,831.5C 1096.33,764.499 1096.5,697.499 1097,630.5C 1097.61,623.722 1099.61,617.389 1103,611.5C 1128.86,585.305 1155.03,559.472 1181.5,534C 1186.14,531.511 1190.8,529.344 1195.5,527.5 Z M 1219.5,582.5 C 1245.5,582.333 1271.5,582.5 1297.5,583C 1302.74,583.9 1306.57,586.734 1309,591.5C 1309.17,604.833 1309.33,618.167 1309.5,631.5C 1309.65,645.59 1309.15,659.59 1308,673.5C 1306.47,674.729 1305.3,676.229 1304.5,678C 1252.83,678.5 1201.17,678.667 1149.5,678.5C 1149.33,670.826 1149.5,663.159 1150,655.5C 1167.43,633.65 1185.09,611.983 1203,590.5C 1207.87,586.315 1213.37,583.648 1219.5,582.5 Z"/></g>
<g><path style="opacity:0.988" fill="#fefefe" d="M 1433.5,529.5 C 1509.17,529.333 1584.83,529.5 1660.5,530C 1669.8,536.641 1676.97,545.141 1682,555.5C 1682.67,604.167 1682.67,652.833 1682,701.5C 1680.27,705.953 1678.27,710.286 1676,714.5C 1669.53,719.968 1663.36,725.801 1657.5,732C 1654.83,733.333 1652.17,734.667 1649.5,736C 1619.52,737.115 1589.52,737.615 1559.5,737.5C 1532.97,737.494 1506.47,737.16 1480,736.5C 1476.68,737.062 1473.52,738.062 1470.5,739.5C 1469.5,770.159 1469.17,800.826 1469.5,831.5C 1451.83,831.5 1434.17,831.5 1416.5,831.5C 1415.99,738.154 1414.99,644.82 1413.5,551.5C 1413.12,537.229 1419.79,529.896 1433.5,529.5 Z M 1474.5,581.5 C 1523.58,581.01 1572.58,581.51 1621.5,583C 1623.96,584.458 1626.13,586.291 1628,588.5C 1628.67,616.833 1628.67,645.167 1628,673.5C 1626.13,675.709 1623.96,677.542 1621.5,679C 1572.83,679.667 1524.17,679.667 1475.5,679C 1473.29,677.127 1471.46,674.96 1470,672.5C 1469.33,645.833 1469.33,619.167 1470,592.5C 1470.97,588.564 1472.47,584.897 1474.5,581.5 Z"/></g>
<g><path style="opacity:0.972" fill="#fefefe" d="M 1729.5,529.5 C 1747.17,529.333 1764.84,529.5 1782.5,530C 1783.89,531.171 1784.73,532.671 1785,534.5C 1785.67,631.5 1785.67,728.5 1785,825.5C 1784.65,827.848 1783.49,829.681 1781.5,831C 1763.5,831.5 1745.5,831.667 1727.5,831.5C 1727.33,731.499 1727.5,631.499 1728,531.5C 1728.72,530.956 1729.22,530.289 1729.5,529.5 Z"/></g>
<g><path style="opacity:0.984" fill="#fefefe" d="M 1859.5,529.5 C 1932.83,529.333 2006.17,529.5 2079.5,530C 2089.13,532.296 2095.63,538.129 2099,547.5C 2100.31,551.42 2101.31,555.42 2102,559.5C 2102.67,617.167 2102.67,674.833 2102,732.5C 2098.83,739.667 2093.67,744.833 2086.5,748C 2078.5,755.667 2070.5,763.333 2062.5,771C 2078.33,788.833 2094.17,806.667 2110,824.5C 2110.5,826.81 2110.66,829.143 2110.5,831.5C 2087.82,831.833 2065.16,831.5 2042.5,830.5C 2034.1,820.934 2024.94,812.268 2015,804.5C 2003.51,813.319 1992.01,822.153 1980.5,831C 1942.5,831.667 1904.5,831.667 1866.5,831C 1857.57,823.619 1848.74,816.119 1840,808.5C 1834.39,799.166 1831.89,788.999 1832.5,778C 1833.31,702.173 1833.81,626.339 1834,550.5C 1834.54,544.913 1837.04,540.413 1841.5,537C 1847.24,533.625 1853.24,531.125 1859.5,529.5 Z M 1906.5,581.5 C 1950.17,581.333 1993.83,581.5 2037.5,582C 2038.93,582.465 2040.1,583.299 2041,584.5C 2043.11,587.608 2044.77,590.941 2046,594.5C 2046.9,636.196 2046.24,677.863 2044,719.5C 2038.35,724.923 2031.85,729.256 2024.5,732.5C 2018.93,725.718 2014.1,718.384 2010,710.5C 2009.28,709.941 2008.44,709.608 2007.5,709.5C 1988.99,714.21 1970.65,719.377 1952.5,725C 1963.21,735.375 1973.54,746.041 1983.5,757C 1975.87,762.819 1967.87,768.152 1959.5,773C 1936.83,773.667 1914.17,773.667 1891.5,773C 1890.11,771.829 1889.27,770.329 1889,768.5C 1887.35,710.537 1887.02,652.537 1888,594.5C 1891.85,586.83 1898.01,582.496 1906.5,581.5 Z"/></g>
<g><path style="opacity:0.935" fill="#fefefe" d="M 708.5,598.5 C 734.835,598.333 761.169,598.5 787.5,599C 802.85,604.865 807.35,615.365 801,630.5C 797.846,634.834 793.68,637.834 788.5,639.5C 787.333,671.828 787.167,704.162 788,736.5C 821.585,792.668 854.919,849.002 888,905.5C 891.745,925.512 884.578,940.345 866.5,950C 862.91,951.53 859.243,952.864 855.5,954C 783.833,954.667 712.167,954.667 640.5,954C 617.217,947.554 606.05,932.387 607,908.5C 608.726,904.047 610.726,899.714 613,895.5C 644.667,842.5 676.333,789.5 708,736.5C 708.833,704.162 708.667,671.828 707.5,639.5C 694.8,634.768 689.967,625.768 693,612.5C 696.049,605.407 701.215,600.74 708.5,598.5 Z M 818.5,822.5 C 803.009,820.311 788.009,822.145 773.5,828C 763.986,832.923 754.32,837.59 744.5,842C 731.709,846.951 718.709,847.618 705.5,844C 694.164,839.388 682.497,835.888 670.5,833.5C 689.333,801.833 708.167,770.167 727,738.5C 727.499,732.509 727.666,726.509 727.5,720.5C 735.121,721.871 739.787,718.871 741.5,711.5C 739.546,704.512 734.879,701.512 727.5,702.5C 727.5,699.833 727.5,697.167 727.5,694.5C 739.818,695.052 743.485,689.885 738.5,679C 735.077,677.096 731.41,676.263 727.5,676.5C 727.5,673.833 727.5,671.167 727.5,668.5C 738.389,669.457 742.556,664.791 740,654.5C 736.613,650.961 732.447,649.628 727.5,650.5C 726.928,641.81 726.261,633.143 725.5,624.5C 724.975,623.808 724.308,623.308 723.5,623C 719.5,622.667 715.5,622.333 711.5,622C 709.342,620.688 709.009,619.022 710.5,617C 735.739,616.173 760.906,616.339 786,617.5C 786.783,619.433 786.283,620.933 784.5,622C 780.167,622.333 775.833,622.667 771.5,623C 770.333,623.5 769.5,624.333 769,625.5C 768.333,663.167 768.333,700.833 769,738.5C 785.727,766.387 802.227,794.387 818.5,822.5 Z M 796.5,839.5 C 810.181,838.443 822.847,841.443 834.5,848.5C 847.185,869.205 859.352,890.205 871,911.5C 872.443,923.083 867.61,930.916 856.5,935C 817.213,936.643 777.88,936.976 738.5,936C 747.759,931.316 751.592,923.816 750,913.5C 743.918,899.026 733.752,895.193 719.5,902C 708.84,912.708 708.84,923.375 719.5,934C 720.833,934.667 722.167,935.333 723.5,936C 696.833,936.667 670.167,936.667 643.5,936C 628.612,932.362 622.779,923.195 626,908.5C 636.79,889.751 647.956,871.251 659.5,853C 664.5,852.333 669.5,852.333 674.5,853C 685.803,856.311 697.136,859.645 708.5,863C 723.605,865.484 738.272,863.818 752.5,858C 761.136,853.682 769.802,849.349 778.5,845C 784.519,842.835 790.519,841.001 796.5,839.5 Z M 803.5,872.5 C 804.5,872.5 805.5,872.5 806.5,872.5C 806.5,873.5 806.5,874.5 806.5,875.5C 805.5,875.5 804.5,875.5 803.5,875.5C 803.5,874.5 803.5,873.5 803.5,872.5 Z M 672.5,883.5 C 673.833,883.5 675.167,883.5 676.5,883.5C 676.5,884.5 676.5,885.5 676.5,886.5C 675.167,886.5 673.833,886.5 672.5,886.5C 672.5,885.5 672.5,884.5 672.5,883.5 Z M 729.5,916.5 C 730.5,916.5 731.5,916.5 732.5,916.5C 732.5,917.5 732.5,918.5 732.5,919.5C 729.506,919.854 728.506,918.854 729.5,916.5 Z"/></g>
<g><path style="opacity:0.946" fill="#fefefe" d="M 415.5,607.5 C 444.502,607.333 473.502,607.5 502.5,608C 507.551,610.72 510.718,614.887 512,620.5C 513.375,628.857 512.375,636.857 509,644.5C 506.56,647.637 503.393,649.637 499.5,650.5C 498.5,678.825 498.167,707.159 498.5,735.5C 538.106,749.273 564.939,775.939 579,815.5C 591.056,866.991 578.222,911.157 540.5,948C 533.003,954.75 524.336,959.417 514.5,962C 477.855,964.743 441.188,965.076 404.5,963C 397.801,961.149 391.467,958.482 385.5,955C 336.67,913.191 323.17,862.024 345,801.5C 360.871,769.628 385.538,747.628 419,735.5C 419.5,707.169 419.667,678.835 419.5,650.5C 412.26,649.095 407.76,644.762 406,637.5C 402.761,625.219 405.928,615.219 415.5,607.5 Z M 424.5,624.5 C 447.833,624.5 471.167,624.5 494.5,624.5C 494.5,627.5 494.5,630.5 494.5,633.5C 490.818,633.335 487.152,633.501 483.5,634C 483,634.5 482.5,635 482,635.5C 481.333,672.167 481.333,708.833 482,745.5C 482.465,746.931 483.299,748.097 484.5,749C 511.654,756.73 533.32,772.063 549.5,795C 516.469,786.528 485.136,790.861 455.5,808C 430.865,818.08 405.532,821.08 379.5,817C 372.879,815.429 366.546,813.095 360.5,810C 375.343,779.169 399.343,759.169 432.5,750C 434.049,748.786 435.215,747.286 436,745.5C 436.667,708.833 436.667,672.167 436,635.5C 435.5,635 435,634.5 434.5,634C 431.183,633.502 427.85,633.335 424.5,633.5C 424.5,630.5 424.5,627.5 424.5,624.5 Z M 510.5,808.5 C 528.109,808.423 544.776,812.089 560.5,819.5C 573.018,865.457 561.685,904.624 526.5,937C 522.613,940.111 518.28,942.444 513.5,944C 477.859,946.755 442.193,947.088 406.5,945C 403.363,944.399 400.363,943.399 397.5,942C 360.802,912.423 346.468,874.257 354.5,827.5C 375.345,836.314 397.012,839.148 419.5,836C 430.707,834.079 441.707,831.412 452.5,828C 464.051,822.725 475.717,817.725 487.5,813C 495.218,811.051 502.884,809.551 510.5,808.5 Z M 480.5,848.5 C 485.682,848.786 487.016,850.953 484.5,855C 478.704,855.574 477.37,853.407 480.5,848.5 Z M 376.5,860.5 C 382.148,860.311 383.482,862.478 380.5,867C 375.791,867.082 374.458,864.915 376.5,860.5 Z M 512.5,900.5 C 517.493,900.997 518.493,903.164 515.5,907C 510.148,907.175 509.148,905.009 512.5,900.5 Z M 432.5,901.5 C 436.976,901.8 438.31,903.967 436.5,908C 430.681,908.526 429.348,906.359 432.5,901.5 Z"/></g>
<g><path style="opacity:0.904" fill="#fefefe" d="M 497.5,816.5 C 499.035,815.212 500.701,815.212 502.5,816.5C 500.997,817.052 499.331,817.052 497.5,816.5 Z"/></g>
<g><path style="opacity:0.941" fill="#fefefe" d="M 484.5,830.5 C 503.147,836.459 507.98,848.125 499,865.5C 489.773,874.703 479.606,875.869 468.5,869C 458.221,858.691 457.888,848.025 467.5,837C 472.412,832.537 478.079,830.37 484.5,830.5 Z M 480.5,848.5 C 477.37,853.407 478.704,855.574 484.5,855C 487.016,850.953 485.682,848.786 480.5,848.5 Z"/></g>
<g><path style="opacity:0.94" fill="#fefefe" d="M 373.5,842.5 C 388.873,841.71 397.873,848.876 400.5,864C 397.778,880.069 388.444,886.736 372.5,884C 357.718,876.322 354.218,865.155 362,850.5C 365.464,847.195 369.297,844.528 373.5,842.5 Z M 376.5,860.5 C 374.458,864.915 375.791,867.082 380.5,867C 383.482,862.478 382.148,860.311 376.5,860.5 Z"/></g>
<g><path style="opacity:0.936" fill="#fefefe" d="M 800.5,854.5 C 817.466,854.299 825.3,862.632 824,879.5C 817.837,892.996 808.003,896.829 794.5,891C 784.789,883.12 782.955,873.62 789,862.5C 792.482,859.161 796.315,856.494 800.5,854.5 Z M 803.5,872.5 C 803.5,873.5 803.5,874.5 803.5,875.5C 804.5,875.5 805.5,875.5 806.5,875.5C 806.5,874.5 806.5,873.5 806.5,872.5C 805.5,872.5 804.5,872.5 803.5,872.5 Z"/></g>
<g><path style="opacity:0.936" fill="#fefefe" d="M 669.5,865.5 C 683.563,864.736 691.896,871.236 694.5,885C 690.991,902.088 680.991,907.755 664.5,902C 652.643,892.372 651.643,881.706 661.5,870C 664.191,868.395 666.858,866.895 669.5,865.5 Z M 672.5,883.5 C 672.5,884.5 672.5,885.5 672.5,886.5C 673.833,886.5 675.167,886.5 676.5,886.5C 676.5,885.5 676.5,884.5 676.5,883.5C 675.167,883.5 673.833,883.5 672.5,883.5 Z"/></g>
<g><path style="opacity:0.888" fill="#fefefe" d="M 745.5,868.5 C 755.654,871.278 757.654,876.778 751.5,885C 740.389,887.889 736.222,883.722 739,872.5C 741.013,870.752 743.18,869.418 745.5,868.5 Z"/></g>
<g><path style="opacity:0.942" fill="#fefefe" d="M 513.5,882.5 C 525.987,883.984 533.32,890.984 535.5,903.5C 530.849,923.758 519.182,929.591 500.5,921C 491.409,912.107 490.243,902.274 497,891.5C 501.291,885.992 506.791,882.992 513.5,882.5 Z M 512.5,900.5 C 509.148,905.009 510.148,907.175 515.5,907C 518.493,903.164 517.493,900.997 512.5,900.5 Z"/></g>
<g><path style="opacity:0.941" fill="#fefefe" d="M 429.5,883.5 C 443.186,882.922 451.686,889.255 455,902.5C 454.694,919.801 445.861,927.634 428.5,926C 413.902,919.21 409.736,908.377 416,893.5C 419.531,888.795 424.031,885.462 429.5,883.5 Z M 432.5,901.5 C 429.348,906.359 430.681,908.526 436.5,908C 438.31,903.967 436.976,901.8 432.5,901.5 Z"/></g>
<g><path style="opacity:0.886" fill="#fefefe" d="M 790.5,908.5 C 799.763,910.692 802.263,916.025 798,924.5C 790.205,929.006 785.039,926.84 782.5,918C 783.567,913.437 786.233,910.271 790.5,908.5 Z"/></g>
</svg>
