<?xml version="1.0" encoding="UTF-8"?>
<!DOCTYPE svg PUBLIC "-//W3C//DTD SVG 1.1//EN" "http://www.w3.org/Graphics/SVG/1.1/DTD/svg11.dtd">
<svg xmlns="http://www.w3.org/2000/svg" version="1.1" width="3000px" height="3000px" style="shape-rendering:geometricPrecision; text-rendering:geometricPrecision; image-rendering:optimizeQuality; fill-rule:evenodd; clip-rule:evenodd" xmlns:xlink="http://www.w3.org/1999/xlink">
<g><path style="opacity:0.969" fill="#fefffe" d="M 1059.5,703.5 C 1060.87,703.343 1062.21,703.51 1063.5,704C 1257.5,814 1451.5,924 1645.5,1034C 1646.45,1034.72 1646.62,1035.55 1646,1036.5C 1633.42,1042.87 1620.92,1049.37 1608.5,1056C 1607.17,1056.67 1605.83,1056.67 1604.5,1056C 1425.33,953.58 1246,851.414 1066.5,749.5C 884.668,856.915 703.002,964.581 521.5,1072.5C 521.167,1074 520.833,1075.5 520.5,1077C 521.473,1283.83 522.473,1490.66 523.5,1697.5C 706.167,1803.5 888.833,1909.5 1071.5,2015.5C 1252.5,1909.67 1433.5,1803.83 1614.5,1698C 1616.17,1697.33 1617.83,1697.33 1619.5,1698C 1632.99,1704.24 1646.32,1710.74 1659.5,1717.5C 1466.02,1832.63 1272.02,1946.97 1077.5,2060.5C 880.708,1949.6 684.042,1838.44 487.5,1727C 486.773,1725.6 486.273,1724.1 486,1722.5C 483.673,1497.5 482.006,1272.5 481,1047.5C 673.979,932.933 866.813,818.266 1059.5,703.5 Z"/></g>
<g><path style="opacity:0.922" fill="#fefffe" d="M 1061.5,770.5 C 1063.85,770.838 1066.19,771.338 1068.5,772C 1242.66,870.247 1416.66,968.747 1590.5,1067.5C 1585.51,1070 1580.51,1072.5 1575.5,1075C 1574.17,1075.67 1572.83,1075.67 1571.5,1075C 1402.58,979.083 1233.41,883.583 1064,788.5C 894.685,888.99 725.685,989.99 557,1091.5C 557.729,1287.5 559.229,1483.5 561.5,1679.5C 732.082,1779.04 902.582,1878.71 1073,1978.5C 1240.33,1878.5 1407.67,1778.5 1575,1678.5C 1580.45,1681.48 1585.95,1684.31 1591.5,1687C 1418.9,1790.55 1246.07,1893.72 1073,1996.5C 897.434,1894.3 721.934,1791.97 546.5,1689.5C 544.106,1487.12 542.272,1284.79 541,1082.5C 714.646,978.6 888.146,874.6 1061.5,770.5 Z"/></g>
<g><path style="opacity:0.986" fill="#fefffe" d="M 1033.5,1071.5 C 1046.92,1072 1060.09,1072 1073,1071.5C 1082,1070.56 1089.66,1073.22 1096,1079.5C 1100.17,1090.67 1104.33,1101.84 1108.5,1113C 1115.32,1116 1122.32,1118.5 1129.5,1120.5C 1139.8,1116.68 1149.8,1112.18 1159.5,1107C 1165.89,1105.79 1171.89,1106.79 1177.5,1110C 1188.03,1120.86 1198.86,1131.36 1210,1141.5C 1214.53,1147.09 1216.2,1153.42 1215,1160.5C 1209.85,1170.14 1204.68,1179.8 1199.5,1189.5C 1202.3,1197.1 1205.64,1204.44 1209.5,1211.5C 1219.25,1214.52 1228.92,1217.69 1238.5,1221C 1245.11,1224.03 1248.94,1229.2 1250,1236.5C 1250.03,1254.5 1249.7,1272.5 1249,1290.5C 1218.23,1289.7 1187.4,1288.87 1156.5,1288C 1159.08,1274.32 1160.24,1260.48 1160,1246.5C 1151.5,1201.67 1125.33,1173.17 1081.5,1161C 1029.63,1151.83 990.131,1169.66 963,1214.5C 952.853,1237.34 950.186,1261.01 955,1285.5C 953.644,1284.62 952.144,1284.29 950.5,1284.5C 950.5,1285.83 950.5,1287.17 950.5,1288.5C 921.197,1288.71 891.863,1288.71 862.5,1288.5C 863.06,1270.17 863.56,1251.84 864,1233.5C 865.607,1227.89 868.774,1223.39 873.5,1220C 883.777,1217.36 894.11,1214.02 904.5,1210C 907.461,1204.58 910.294,1199.08 913,1193.5C 913.837,1191.18 914.17,1188.85 914,1186.5C 909.613,1178.22 905.113,1170.05 900.5,1162C 900.833,1161.67 901.167,1161.33 901.5,1161C 898.827,1153.63 899.994,1146.8 905,1140.5C 917.347,1127.47 930.847,1115.97 945.5,1106C 949.5,1105.33 953.5,1105.33 957.5,1106C 963.66,1108.58 969.327,1111.91 974.5,1116C 978.29,1117.65 982.123,1119.15 986,1120.5C 993.241,1117.8 1000.41,1114.8 1007.5,1111.5C 1011.08,1101.92 1014.58,1092.25 1018,1082.5C 1021.96,1077.02 1027.13,1073.36 1033.5,1071.5 Z M 1036.5,1086.5 C 1051.51,1086.75 1066.51,1087.25 1081.5,1088C 1085.91,1098.22 1089.74,1108.72 1093,1119.5C 1095.2,1122.04 1097.7,1124.21 1100.5,1126C 1109.54,1130.4 1118.87,1133.9 1128.5,1136.5C 1131.23,1136.32 1133.89,1135.82 1136.5,1135C 1146.03,1131.06 1155.37,1126.9 1164.5,1122.5C 1165.5,1122.67 1166.5,1122.83 1167.5,1123C 1171.87,1127.7 1176.53,1132.03 1181.5,1136C 1187.96,1142.12 1193.63,1148.78 1198.5,1156C 1198.39,1158.73 1197.55,1161.23 1196,1163.5C 1191.5,1169.84 1187.5,1176.5 1184,1183.5C 1183.11,1192.45 1185.28,1200.62 1190.5,1208C 1190.8,1214.79 1193.8,1220.46 1199.5,1225C 1209.29,1228.62 1219.29,1231.62 1229.5,1234C 1233.88,1237.12 1235.55,1241.45 1234.5,1247C 1233.75,1256.15 1233.42,1265.32 1233.5,1274.5C 1214.17,1274.33 1194.83,1273.99 1175.5,1273.5C 1179.93,1225.85 1162.26,1188.35 1122.5,1161C 1073.95,1134.02 1026.95,1136.35 981.5,1168C 948.247,1195.07 933.247,1230.07 936.5,1273C 917.797,1272.55 899.13,1272.38 880.5,1272.5C 878.009,1260.1 878.175,1247.77 881,1235.5C 881.903,1234.3 883.069,1233.47 884.5,1233C 894.329,1230.46 903.996,1227.46 913.5,1224C 915,1222.5 916.5,1221 918,1219.5C 922,1211.5 926,1203.5 930,1195.5C 930.667,1191.17 930.667,1186.83 930,1182.5C 926.088,1174.34 921.922,1166.34 917.5,1158.5C 916.353,1156.24 916.186,1153.9 917,1151.5C 928.034,1140.8 939.367,1130.46 951,1120.5C 960.881,1125.52 970.714,1130.69 980.5,1136C 984.572,1136.66 988.572,1136.32 992.5,1135C 999.842,1131.16 1007.51,1128.16 1015.5,1126C 1018.3,1124.21 1020.8,1122.04 1023,1119.5C 1026.2,1110.23 1029.2,1100.9 1032,1091.5C 1033.02,1089.31 1034.52,1087.65 1036.5,1086.5 Z"/></g>
<g><path style="opacity:0.934" fill="#fefffe" d="M 1047.5,1200.5 C 1060.32,1199.15 1065.82,1204.82 1064,1217.5C 1062.92,1220 1061.59,1222.33 1060,1224.5C 1059.33,1227.17 1059.33,1229.83 1060,1232.5C 1066.38,1237.28 1073.22,1241.45 1080.5,1245C 1084.34,1244.6 1088.01,1243.27 1091.5,1241C 1092.14,1234.37 1095.48,1229.71 1101.5,1227C 1114.16,1225.99 1119.66,1231.83 1118,1244.5C 1114.6,1251.12 1109.1,1253.95 1101.5,1253C 1098.33,1255.09 1094.99,1256.92 1091.5,1258.5C 1090.5,1268.48 1090.17,1278.48 1090.5,1288.5C 1096.97,1290.65 1102.8,1293.99 1108,1298.5C 1111.72,1295.12 1115.72,1292.12 1120,1289.5C 1120.26,1277.9 1126.09,1272.74 1137.5,1274C 1140.1,1274.88 1142.27,1276.38 1144,1278.5C 1148.86,1291.81 1144.36,1299.15 1130.5,1300.5C 1126.47,1303.69 1122.31,1306.69 1118,1309.5C 1117.33,1316.83 1117.33,1324.17 1118,1331.5C 1124.43,1337.61 1125.1,1344.28 1120,1351.5C 1114.21,1356.18 1108.04,1356.68 1101.5,1353C 1094.73,1345.69 1094.89,1338.52 1102,1331.5C 1102.81,1324.92 1102.64,1318.42 1101.5,1312C 1095.21,1308.28 1089.05,1304.44 1083,1300.5C 1075.2,1304.98 1067.53,1309.65 1060,1314.5C 1059.33,1322.5 1059.33,1330.5 1060,1338.5C 1063.83,1342.33 1067.67,1346.17 1071.5,1350C 1084.66,1351.83 1089,1359 1084.5,1371.5C 1078.51,1377.13 1071.84,1377.97 1064.5,1374C 1061.36,1370.09 1059.69,1365.59 1059.5,1360.5C 1056.85,1357.35 1054.02,1354.35 1051,1351.5C 1048.3,1354.54 1045.3,1357.2 1042,1359.5C 1040.84,1374.34 1033.34,1378.84 1019.5,1373C 1013.67,1364.99 1014.34,1357.66 1021.5,1351C 1025.21,1350.11 1028.88,1349.11 1032.5,1348C 1036.03,1344.13 1039.87,1340.63 1044,1337.5C 1044.67,1329.83 1044.67,1322.17 1044,1314.5C 1037.14,1309.4 1029.81,1305.07 1022,1301.5C 1019.05,1303.39 1015.88,1304.89 1012.5,1306C 1008.76,1318.03 1001.09,1321.37 989.5,1316C 983.969,1308.6 984.302,1301.43 990.5,1294.5C 994.688,1292.33 999.022,1292 1003.5,1293.5C 1006.92,1291.37 1010.42,1289.37 1014,1287.5C 1014.83,1278.15 1014.67,1268.82 1013.5,1259.5C 1010.62,1257.56 1007.62,1255.9 1004.5,1254.5C 993.124,1257.82 986.79,1253.65 985.5,1242C 986.677,1231.9 992.344,1227.9 1002.5,1230C 1005.03,1230.52 1007.2,1231.68 1009,1233.5C 1009.98,1236.1 1011.14,1238.6 1012.5,1241C 1015.61,1242.64 1018.77,1244.14 1022,1245.5C 1029.81,1241.93 1037.14,1237.6 1044,1232.5C 1045.47,1226.45 1043.81,1221.45 1039,1217.5C 1037.22,1209.46 1040.06,1203.8 1047.5,1200.5 Z M 1050.5,1246.5 C 1052.31,1246.49 1053.98,1246.99 1055.5,1248C 1061.45,1252.22 1067.61,1256.06 1074,1259.5C 1074.83,1269.18 1074.67,1278.85 1073.5,1288.5C 1065.92,1292.21 1058.75,1296.54 1052,1301.5C 1045.25,1296.54 1038.08,1292.21 1030.5,1288.5C 1029.33,1278.85 1029.17,1269.18 1030,1259.5C 1037.25,1255.73 1044.09,1251.4 1050.5,1246.5 Z"/></g>
<g><path style="opacity:0.987" fill="#fefffe" d="M 1651.5,1227.5 C 1697.17,1227.33 1742.83,1227.5 1788.5,1228C 1799.26,1228.02 1809.93,1228.86 1820.5,1230.5C 1820.79,1330.84 1820.46,1431.17 1819.5,1531.5C 1801.83,1531.5 1784.17,1531.5 1766.5,1531.5C 1765.71,1503.19 1765.21,1474.85 1765,1446.5C 1761.82,1438.74 1755.99,1435.08 1747.5,1435.5C 1702.15,1436.02 1656.82,1436.85 1611.5,1438C 1608.25,1440.34 1606.41,1443.51 1606,1447.5C 1605.97,1475.23 1605.31,1502.9 1604,1530.5C 1586.91,1531.49 1569.74,1531.83 1552.5,1531.5C 1552.33,1464.5 1552.5,1397.5 1553,1330.5C 1553.61,1323.72 1555.61,1317.39 1559,1311.5C 1584.86,1285.31 1611.03,1259.47 1637.5,1234C 1642.14,1231.51 1646.8,1229.34 1651.5,1227.5 Z M 1675.5,1282.5 C 1701.5,1282.33 1727.5,1282.5 1753.5,1283C 1758.74,1283.9 1762.57,1286.73 1765,1291.5C 1765.17,1304.83 1765.33,1318.17 1765.5,1331.5C 1765.65,1345.59 1765.15,1359.59 1764,1373.5C 1762.47,1374.73 1761.3,1376.23 1760.5,1378C 1708.83,1378.5 1657.17,1378.67 1605.5,1378.5C 1605.33,1370.83 1605.5,1363.16 1606,1355.5C 1623.43,1333.65 1641.09,1311.98 1659,1290.5C 1663.87,1286.31 1669.37,1283.65 1675.5,1282.5 Z"/></g>
<g><path style="opacity:0.988" fill="#fefffe" d="M 1889.5,1229.5 C 1965.17,1229.33 2040.83,1229.5 2116.5,1230C 2125.8,1236.64 2132.97,1245.14 2138,1255.5C 2138.67,1304.17 2138.67,1352.83 2138,1401.5C 2136.27,1405.95 2134.27,1410.29 2132,1414.5C 2125.53,1419.97 2119.36,1425.8 2113.5,1432C 2110.83,1433.33 2108.17,1434.67 2105.5,1436C 2075.52,1437.12 2045.52,1437.62 2015.5,1437.5C 1988.97,1437.49 1962.47,1437.16 1936,1436.5C 1932.68,1437.06 1929.52,1438.06 1926.5,1439.5C 1925.5,1470.16 1925.17,1500.83 1925.5,1531.5C 1907.83,1531.5 1890.17,1531.5 1872.5,1531.5C 1871.99,1438.15 1870.99,1344.82 1869.5,1251.5C 1869.12,1237.23 1875.79,1229.9 1889.5,1229.5 Z M 1930.5,1281.5 C 1979.58,1281.01 2028.58,1281.51 2077.5,1283C 2079.96,1284.46 2082.13,1286.29 2084,1288.5C 2084.67,1316.83 2084.67,1345.17 2084,1373.5C 2082.13,1375.71 2079.96,1377.54 2077.5,1379C 2028.83,1379.67 1980.17,1379.67 1931.5,1379C 1929.29,1377.13 1927.46,1374.96 1926,1372.5C 1925.33,1345.83 1925.33,1319.17 1926,1292.5C 1926.97,1288.56 1928.47,1284.9 1930.5,1281.5 Z"/></g>
<g><path style="opacity:0.972" fill="#fefffe" d="M 2185.5,1229.5 C 2203.17,1229.33 2220.84,1229.5 2238.5,1230C 2239.89,1231.17 2240.73,1232.67 2241,1234.5C 2241.67,1331.5 2241.67,1428.5 2241,1525.5C 2240.65,1527.85 2239.49,1529.68 2237.5,1531C 2219.5,1531.5 2201.5,1531.67 2183.5,1531.5C 2183.33,1431.5 2183.5,1331.5 2184,1231.5C 2184.72,1230.96 2185.22,1230.29 2185.5,1229.5 Z"/></g>
<g><path style="opacity:0.984" fill="#fefffe" d="M 2315.5,1229.5 C 2388.83,1229.33 2462.17,1229.5 2535.5,1230C 2545.13,1232.3 2551.63,1238.13 2555,1247.5C 2556.31,1251.42 2557.31,1255.42 2558,1259.5C 2558.67,1317.17 2558.67,1374.83 2558,1432.5C 2554.83,1439.67 2549.67,1444.83 2542.5,1448C 2534.5,1455.67 2526.5,1463.33 2518.5,1471C 2534.33,1488.83 2550.17,1506.67 2566,1524.5C 2566.5,1526.81 2566.66,1529.14 2566.5,1531.5C 2543.82,1531.83 2521.16,1531.5 2498.5,1530.5C 2490.1,1520.93 2480.94,1512.27 2471,1504.5C 2459.51,1513.32 2448.01,1522.15 2436.5,1531C 2398.5,1531.67 2360.5,1531.67 2322.5,1531C 2313.57,1523.62 2304.74,1516.12 2296,1508.5C 2290.39,1499.17 2287.89,1489 2288.5,1478C 2289.31,1402.17 2289.81,1326.34 2290,1250.5C 2290.54,1244.91 2293.04,1240.41 2297.5,1237C 2303.24,1233.63 2309.24,1231.13 2315.5,1229.5 Z M 2362.5,1281.5 C 2406.17,1281.33 2449.83,1281.5 2493.5,1282C 2494.93,1282.47 2496.1,1283.3 2497,1284.5C 2499.11,1287.61 2500.77,1290.94 2502,1294.5C 2502.9,1336.2 2502.24,1377.86 2500,1419.5C 2494.35,1424.92 2487.85,1429.26 2480.5,1432.5C 2474.93,1425.72 2470.1,1418.38 2466,1410.5C 2465.28,1409.94 2464.44,1409.61 2463.5,1409.5C 2444.99,1414.21 2426.65,1419.38 2408.5,1425C 2419.21,1435.37 2429.54,1446.04 2439.5,1457C 2431.87,1462.82 2423.87,1468.15 2415.5,1473C 2392.83,1473.67 2370.17,1473.67 2347.5,1473C 2346.11,1471.83 2345.27,1470.33 2345,1468.5C 2343.35,1410.54 2343.02,1352.54 2344,1294.5C 2347.85,1286.83 2354.01,1282.5 2362.5,1281.5 Z"/></g>
<g><path style="opacity:0.935" fill="#fefffe" d="M 1164.5,1298.5 C 1190.84,1298.33 1217.17,1298.5 1243.5,1299C 1258.85,1304.87 1263.35,1315.37 1257,1330.5C 1253.85,1334.83 1249.68,1337.83 1244.5,1339.5C 1243.33,1371.83 1243.17,1404.16 1244,1436.5C 1277.59,1492.67 1310.92,1549 1344,1605.5C 1347.75,1625.51 1340.58,1640.35 1322.5,1650C 1318.91,1651.53 1315.24,1652.86 1311.5,1654C 1239.83,1654.67 1168.17,1654.67 1096.5,1654C 1073.22,1647.55 1062.05,1632.39 1063,1608.5C 1064.73,1604.05 1066.73,1599.71 1069,1595.5C 1100.67,1542.5 1132.33,1489.5 1164,1436.5C 1164.83,1404.16 1164.67,1371.83 1163.5,1339.5C 1150.8,1334.77 1145.97,1325.77 1149,1312.5C 1152.05,1305.41 1157.22,1300.74 1164.5,1298.5 Z M 1274.5,1522.5 C 1259.01,1520.31 1244.01,1522.14 1229.5,1528C 1219.99,1532.92 1210.32,1537.59 1200.5,1542C 1187.71,1546.95 1174.71,1547.62 1161.5,1544C 1150.16,1539.39 1138.5,1535.89 1126.5,1533.5C 1145.33,1501.83 1164.17,1470.17 1183,1438.5C 1183.5,1432.51 1183.67,1426.51 1183.5,1420.5C 1191.12,1421.87 1195.79,1418.87 1197.5,1411.5C 1195.55,1404.51 1190.88,1401.51 1183.5,1402.5C 1183.5,1399.83 1183.5,1397.17 1183.5,1394.5C 1195.82,1395.05 1199.48,1389.89 1194.5,1379C 1191.08,1377.1 1187.41,1376.26 1183.5,1376.5C 1183.5,1373.83 1183.5,1371.17 1183.5,1368.5C 1194.39,1369.46 1198.56,1364.79 1196,1354.5C 1192.61,1350.96 1188.45,1349.63 1183.5,1350.5C 1182.93,1341.81 1182.26,1333.14 1181.5,1324.5C 1180.97,1323.81 1180.31,1323.31 1179.5,1323C 1175.5,1322.67 1171.5,1322.33 1167.5,1322C 1165.34,1320.69 1165.01,1319.02 1166.5,1317C 1191.74,1316.17 1216.91,1316.34 1242,1317.5C 1242.78,1319.43 1242.28,1320.93 1240.5,1322C 1236.17,1322.33 1231.83,1322.67 1227.5,1323C 1226.33,1323.5 1225.5,1324.33 1225,1325.5C 1224.33,1363.17 1224.33,1400.83 1225,1438.5C 1241.73,1466.39 1258.23,1494.39 1274.5,1522.5 Z M 1252.5,1539.5 C 1266.18,1538.44 1278.85,1541.44 1290.5,1548.5C 1303.19,1569.2 1315.35,1590.2 1327,1611.5C 1328.44,1623.08 1323.61,1630.92 1312.5,1635C 1273.21,1636.64 1233.88,1636.98 1194.5,1636C 1203.76,1631.32 1207.59,1623.82 1206,1613.5C 1199.92,1599.03 1189.75,1595.19 1175.5,1602C 1164.84,1612.71 1164.84,1623.37 1175.5,1634C 1176.83,1634.67 1178.17,1635.33 1179.5,1636C 1152.83,1636.67 1126.17,1636.67 1099.5,1636C 1084.61,1632.36 1078.78,1623.2 1082,1608.5C 1092.79,1589.75 1103.96,1571.25 1115.5,1553C 1120.5,1552.33 1125.5,1552.33 1130.5,1553C 1141.8,1556.31 1153.14,1559.64 1164.5,1563C 1179.6,1565.48 1194.27,1563.82 1208.5,1558C 1217.14,1553.68 1225.8,1549.35 1234.5,1545C 1240.52,1542.83 1246.52,1541 1252.5,1539.5 Z M 1259.5,1572.5 C 1260.5,1572.5 1261.5,1572.5 1262.5,1572.5C 1262.5,1573.5 1262.5,1574.5 1262.5,1575.5C 1261.5,1575.5 1260.5,1575.5 1259.5,1575.5C 1259.5,1574.5 1259.5,1573.5 1259.5,1572.5 Z M 1128.5,1583.5 C 1129.83,1583.5 1131.17,1583.5 1132.5,1583.5C 1132.5,1584.5 1132.5,1585.5 1132.5,1586.5C 1131.17,1586.5 1129.83,1586.5 1128.5,1586.5C 1128.5,1585.5 1128.5,1584.5 1128.5,1583.5 Z M 1185.5,1616.5 C 1186.5,1616.5 1187.5,1616.5 1188.5,1616.5C 1188.5,1617.5 1188.5,1618.5 1188.5,1619.5C 1185.51,1619.85 1184.51,1618.85 1185.5,1616.5 Z"/></g>
<g><path style="opacity:0.946" fill="#fefffe" d="M 871.5,1307.5 C 900.502,1307.33 929.502,1307.5 958.5,1308C 963.551,1310.72 966.718,1314.89 968,1320.5C 969.375,1328.86 968.375,1336.86 965,1344.5C 962.56,1347.64 959.393,1349.64 955.5,1350.5C 954.5,1378.83 954.167,1407.16 954.5,1435.5C 994.106,1449.27 1020.94,1475.94 1035,1515.5C 1047.06,1566.99 1034.22,1611.16 996.5,1648C 989.003,1654.75 980.336,1659.42 970.5,1662C 933.855,1664.74 897.188,1665.08 860.5,1663C 853.801,1661.15 847.467,1658.48 841.5,1655C 792.67,1613.19 779.17,1562.02 801,1501.5C 816.871,1469.63 841.538,1447.63 875,1435.5C 875.5,1407.17 875.667,1378.84 875.5,1350.5C 868.26,1349.1 863.76,1344.76 862,1337.5C 858.761,1325.22 861.928,1315.22 871.5,1307.5 Z M 880.5,1324.5 C 903.833,1324.5 927.167,1324.5 950.5,1324.5C 950.5,1327.5 950.5,1330.5 950.5,1333.5C 946.818,1333.33 943.152,1333.5 939.5,1334C 939,1334.5 938.5,1335 938,1335.5C 937.333,1372.17 937.333,1408.83 938,1445.5C 938.465,1446.93 939.299,1448.1 940.5,1449C 967.654,1456.73 989.32,1472.06 1005.5,1495C 972.469,1486.53 941.136,1490.86 911.5,1508C 886.865,1518.08 861.532,1521.08 835.5,1517C 828.879,1515.43 822.546,1513.1 816.5,1510C 831.343,1479.17 855.343,1459.17 888.5,1450C 890.049,1448.79 891.215,1447.29 892,1445.5C 892.667,1408.83 892.667,1372.17 892,1335.5C 891.5,1335 891,1334.5 890.5,1334C 887.183,1333.5 883.85,1333.33 880.5,1333.5C 880.5,1330.5 880.5,1327.5 880.5,1324.5 Z M 966.5,1508.5 C 984.109,1508.42 1000.78,1512.09 1016.5,1519.5C 1029.02,1565.46 1017.68,1604.62 982.5,1637C 978.613,1640.11 974.28,1642.44 969.5,1644C 933.859,1646.75 898.193,1647.09 862.5,1645C 859.363,1644.4 856.363,1643.4 853.5,1642C 816.802,1612.42 802.468,1574.26 810.5,1527.5C 831.345,1536.31 853.012,1539.15 875.5,1536C 886.707,1534.08 897.707,1531.41 908.5,1528C 920.051,1522.72 931.717,1517.72 943.5,1513C 951.218,1511.05 958.884,1509.55 966.5,1508.5 Z M 936.5,1548.5 C 941.682,1548.79 943.016,1550.95 940.5,1555C 934.704,1555.57 933.37,1553.41 936.5,1548.5 Z M 832.5,1560.5 C 838.148,1560.31 839.482,1562.48 836.5,1567C 831.791,1567.08 830.458,1564.92 832.5,1560.5 Z M 968.5,1600.5 C 973.493,1601 974.493,1603.16 971.5,1607C 966.148,1607.18 965.148,1605.01 968.5,1600.5 Z M 888.5,1601.5 C 892.976,1601.8 894.31,1603.97 892.5,1608C 886.681,1608.53 885.348,1606.36 888.5,1601.5 Z"/></g>
<g><path style="opacity:0.904" fill="#fefffe" d="M 953.5,1516.5 C 955.035,1515.21 956.701,1515.21 958.5,1516.5C 956.997,1517.05 955.331,1517.05 953.5,1516.5 Z"/></g>
<g><path style="opacity:0.941" fill="#fefffe" d="M 940.5,1530.5 C 959.147,1536.46 963.98,1548.13 955,1565.5C 945.773,1574.7 935.606,1575.87 924.5,1569C 914.221,1558.69 913.888,1548.02 923.5,1537C 928.412,1532.54 934.079,1530.37 940.5,1530.5 Z M 936.5,1548.5 C 933.37,1553.41 934.704,1555.57 940.5,1555C 943.016,1550.95 941.682,1548.79 936.5,1548.5 Z"/></g>
<g><path style="opacity:0.94" fill="#fefffe" d="M 829.5,1542.5 C 844.873,1541.71 853.873,1548.88 856.5,1564C 853.778,1580.07 844.444,1586.74 828.5,1584C 813.718,1576.32 810.218,1565.16 818,1550.5C 821.464,1547.19 825.297,1544.53 829.5,1542.5 Z M 832.5,1560.5 C 830.458,1564.92 831.791,1567.08 836.5,1567C 839.482,1562.48 838.148,1560.31 832.5,1560.5 Z"/></g>
<g><path style="opacity:0.936" fill="#fefffe" d="M 1256.5,1554.5 C 1273.47,1554.3 1281.3,1562.63 1280,1579.5C 1273.84,1593 1264,1596.83 1250.5,1591C 1240.79,1583.12 1238.96,1573.62 1245,1562.5C 1248.48,1559.16 1252.32,1556.49 1256.5,1554.5 Z M 1259.5,1572.5 C 1259.5,1573.5 1259.5,1574.5 1259.5,1575.5C 1260.5,1575.5 1261.5,1575.5 1262.5,1575.5C 1262.5,1574.5 1262.5,1573.5 1262.5,1572.5C 1261.5,1572.5 1260.5,1572.5 1259.5,1572.5 Z"/></g>
<g><path style="opacity:0.936" fill="#fefffe" d="M 1125.5,1565.5 C 1139.56,1564.74 1147.9,1571.24 1150.5,1585C 1146.99,1602.09 1136.99,1607.76 1120.5,1602C 1108.64,1592.37 1107.64,1581.71 1117.5,1570C 1120.19,1568.4 1122.86,1566.9 1125.5,1565.5 Z M 1128.5,1583.5 C 1128.5,1584.5 1128.5,1585.5 1128.5,1586.5C 1129.83,1586.5 1131.17,1586.5 1132.5,1586.5C 1132.5,1585.5 1132.5,1584.5 1132.5,1583.5C 1131.17,1583.5 1129.83,1583.5 1128.5,1583.5 Z"/></g>
<g><path style="opacity:0.888" fill="#fefffe" d="M 1201.5,1568.5 C 1211.65,1571.28 1213.65,1576.78 1207.5,1585C 1196.39,1587.89 1192.22,1583.72 1195,1572.5C 1197.01,1570.75 1199.18,1569.42 1201.5,1568.5 Z"/></g>
<g><path style="opacity:0.942" fill="#fefffe" d="M 969.5,1582.5 C 981.987,1583.98 989.32,1590.98 991.5,1603.5C 986.849,1623.76 975.182,1629.59 956.5,1621C 947.409,1612.11 946.243,1602.27 953,1591.5C 957.291,1585.99 962.791,1582.99 969.5,1582.5 Z M 968.5,1600.5 C 965.148,1605.01 966.148,1607.18 971.5,1607C 974.493,1603.16 973.493,1601 968.5,1600.5 Z"/></g>
<g><path style="opacity:0.941" fill="#fefffe" d="M 885.5,1583.5 C 899.186,1582.92 907.686,1589.26 911,1602.5C 910.694,1619.8 901.861,1627.63 884.5,1626C 869.902,1619.21 865.736,1608.38 872,1593.5C 875.531,1588.8 880.031,1585.46 885.5,1583.5 Z M 888.5,1601.5 C 885.348,1606.36 886.681,1608.53 892.5,1608C 894.31,1603.97 892.976,1601.8 888.5,1601.5 Z"/></g>
<g><path style="opacity:0.886" fill="#fefffe" d="M 1246.5,1608.5 C 1255.76,1610.69 1258.26,1616.03 1254,1624.5C 1246.21,1629.01 1241.04,1626.84 1238.5,1618C 1239.57,1613.44 1242.23,1610.27 1246.5,1608.5 Z"/></g>
</svg>
